{"title":"Verano En Staten Island - 2015 [720p][Spanish]","uid":12829860,"size":1559524998,"categoryP":"video","categoryS":"movies","magnet":"?xt=urn:btih:e4d9d50234801463f2d5d3138b1b12aaf72220c2&amp;dn=Verano+En+Staten+Island+-+2015+%5B720p%5D%5BSpanish%5D&amp;tr=udp%3A%2F%2Ftracker.leechers-paradise.org%3A6969&amp;tr=udp%3A%2F%2Fzer0day.ch%3A1337&amp;tr=udp%3A%2F%2Fopen.demonii.com%3A1337&amp;tr=udp%3A%2F%2Ftracker.coppersurfer.tk%3A6969&amp;tr=udp%3A%2F%2Fexodus.desync.com%3A6969","seeders":0,"leechers":1,"uploader":"buker10","files":1,"time":1448385407,"description":"General\r\nComplete name                            : Verano En Staten Island.mp4\r\nFormat                                   : MPEG-4\r\nFormat profile                           : Base Media / Version 2\r\nCodec ID                                 : mp42\r\nFile size                                : 1.45 GiB\r\nDuration                                 : 1h 47mn\r\nOverall bit rate mode                    : Variable\r\nOverall bit rate                         : 1 931 Kbps\r\nEncoded date                             : UTC 2015-09-03 22:18:27\r\nTagged date                              : UTC 2015-09-03 22:50:51\r\n\r\nVideo\r\nID                                       : 1\r\nFormat                                   : AVC\r\nFormat/Info                              : Advanced Video Codec\r\nFormat profile                           :   \r\nFormat settings, CABAC                   : Yes\r\nFormat settings, ReFrames                : 2 frames\r\nCodec ID                                 : avc1\r\nCodec ID/Info                            : Advanced Video Coding\r\nDuration                                 : 1h 47mn\r\nBit rate mode                            : Variable\r\nBit rate                                 : 1 800 Kbps\r\nWidth                                    : 1 280 pixels\r\nHeight                                   : 534 pixels\r\nDisplay aspect ratio                     : 2.40:1\r\nFrame rate mode                          : Variable\r\nFrame rate                               : 23.976 fps\r\nMinimum frame rate                       : 23.974 fps\r\nMaximum frame rate                       : 90 000.000 fps\r\nColor space                              : YUV\r\nChroma subsampling                       : 4:2:0\r\nBit depth                                : 8 bits\r\nScan type                                : Progressive\r\nBits/(Pixel*Frame)                       : 0.110\r\nStream size                              : 1.33 GiB (91%)\r\nWriting library                          : x264 core 120\r\n\r\nAudio\r\nID                                       : 2\r\nFormat                                   : AAC\r\nFormat/Info                              : Advanced Audio Codec\r\nFormat profile                           : LC\r\nCodec ID                                 : 40\r\nDuration                                 : 1h 47mn\r\nBit rate mode                            : Variable\r\nBit rate                                 : 160 Kbps\r\nMaximum bit rate                         : 226 Kbps\r\nChannel(s)                               : 2 channels\r\nChannel positions                        : Front: L R\r\nSampling rate                            : 48.0 KHz\r\nCompression mode                         : Lossy\r\nDelay relative to video                  : -42ms\r\nStream size                              : 123 MiB (8%)\r\nLanguage                                 : Spanish","torrent":{"xt":"urn:btih:e4d9d50234801463f2d5d3138b1b12aaf72220c2","amp;dn":"Verano+En+Staten+Island+-+2015+%5B720p%5D%5BSpanish%5D","amp;tr":["udp%3A%2F%2Ftracker.leechers-paradise.org%3A6969","udp%3A%2F%2Fzer0day.ch%3A1337","udp%3A%2F%2Fopen.demonii.com%3A1337","udp%3A%2F%2Ftracker.coppersurfer.tk%3A6969","udp%3A%2F%2Fexodus.desync.com%3A6969"],"infoHash":"e4d9d50234801463f2d5d3138b1b12aaf72220c2","infoHashBuffer":{"type":"Buffer","data":[228,217,213,2,52,128,20,99,242,213,211,19,139,27,18,170,247,34,32,194]},"announce":[],"urlList":[]}}